<svg xmlns="http://www.w3.org/2000/svg" viewBox="0 -0.5 16 16" shape-rendering="crispEdges"><path stroke="#000101" d="M5 0h1M0 9h1" /><path stroke="#000000" d="M6 0h2M9 0h1M3 1h2M11 1h2M2 2h1M12 2h1M4 3h7M13 3h1M1 4h1M0 5h1M6 5h1M9 5h4M15 5h1M15 6h1M14 7h1M1 8h1M2 9h1M3 10h1M11 10h2M15 10h1M1 11h2M7 11h2M13 11h1M3 13h1M5 14h1M10 14h2M8 15h1" /><path stroke="#010001" d="M8 0h1M12 3h1M7 5h1M4 12h1" /><path stroke="#000100" d="M10 0h1M13 2h1M3 3h1M8 5h1M13 5h1M13 6h1M8 9h2M4 10h1M14 11h1M2 12h1M11 12h1M13 12h1M7 13h1M7 15h1" /><path stroke="#009d1c" d="M5 1h1M10 1h1M2 4h1M4 4h2M7 4h3M1 5h1M1 6h1M14 6h1M1 9h1M1 10h1M13 10h1" /><path stroke="#2ccb6f" d="M6 1h2M5 2h1M10 2h1" /><path stroke="#2dcb6f" d="M8 1h1" /><path stroke="#2cca6f" d="M9 1h1M6 2h2" /><path stroke="#000001" d="M3 2h1M5 5h1M6 9h1M13 9h1M15 9h1M0 10h1M5 10h1M8 13h1M4 14h1M6 15h1M9 15h1" /><path stroke="#009d1d" d="M4 2h1M14 9h1" /><path stroke="#2dca6f" d="M8 2h1" /><path stroke="#2ccb6e" d="M9 2h1" /><path stroke="#009c1c" d="M11 2h1M6 4h1M10 4h2M13 4h1M14 5h1" /><path stroke="#010100" d="M2 3h1" /><path stroke="#010000" d="M11 3h1M14 4h1M2 5h3M2 6h1M1 7h1M14 8h1M7 9h1M12 13h1" /><path stroke="#6eb026" d="M3 4h1" /><path stroke="#6eb127" d="M12 4h1" /><path stroke="#010101" d="M0 6h1M10 10h1" /><path stroke="#e57e21" d="M3 6h1M6 6h3M12 6h1M2 7h1M2 8h1M8 8h1M13 8h1" /><path stroke="#fefefe" d="M4 6h1M11 6h1M11 7h1M4 9h1M11 9h1" /><path stroke="#fffeff" d="M5 6h1M4 7h1" /><path stroke="#e57f21" d="M9 6h1" /><path stroke="#fefffe" d="M10 6h1" /><path stroke="#f0c20e" d="M3 7h1M5 7h2M9 7h1M4 8h1M9 8h1M12 8h1" /><path stroke="#f0c30e" d="M7 7h1M10 7h1M3 8h1M6 8h1M10 8h1M10 9h1" /><path stroke="#f1c30e" d="M8 7h1" /><path stroke="#f0c20f" d="M12 7h1M11 8h1" /><path stroke="#e47e20" d="M13 7h1" /><path stroke="#f0c30f" d="M5 8h1M5 9h1" /><path stroke="#e47e21" d="M7 8h1" /><path stroke="#e47f21" d="M3 9h1" /><path stroke="#e57e20" d="M12 9h1" /><path stroke="#019c1c" d="M2 10h1M14 10h1" /><path stroke="#335105" d="M6 10h2M9 12h2M5 13h1M8 14h1" /><path stroke="#325104" d="M8 10h1M5 11h1M10 11h1M7 12h1M9 14h1" /><path stroke="#325005" d="M9 10h1M5 12h1M10 13h1" /><path stroke="#325105" d="M3 11h2M6 11h1M9 11h1M12 11h1M3 12h1M6 12h1M8 12h1M12 12h1M4 13h1M6 13h1M9 13h1M11 13h1M6 14h1" /><path stroke="#335104" d="M11 11h1M7 14h1" /></svg>