<?xml version="1.0" standalone="no"?>
<!DOCTYPE svg PUBLIC "-//W3C//DTD SVG 1.1//EN" "http://www.w3.org/Graphics/SVG/1.1/DTD/svg11.dtd" >
<svg>
<metadata>
Created by FontForge 20110222 at Mon Jan 21 21:33:03 2013
 By www-data
Copyright YORYANBEAVER 2013
</metadata>
<defs>
<font id="8-Bit-Party" horiz-adv-x="640" >
  <font-face 
    font-family="8 Bit Party"
    font-weight="400"
    font-stretch="normal"
    units-per-em="1024"
    panose-1="0 0 4 0 0 0 0 0 0 0"
    ascent="1024"
    descent="0"
    x-height="1024"
    cap-height="1024"
    bbox="-128 -128 640 1152"
    underline-thickness="51"
    underline-position="127"
    unicode-range="U+0020-201D"
  />
    <missing-glyph />
    <glyph glyph-name="space" unicode=" " horiz-adv-x="256" 
 />
    <glyph glyph-name="exclam" unicode="!" horiz-adv-x="256" 
d="M0 0v128h128v-128h-128zM0 256v768h128v-768h-128z" />
    <glyph glyph-name="quotedbl" unicode="&#x22;" horiz-adv-x="512" 
d="M0 768v256h128v-256h-128zM256 768v256h128v-256h-128z" />
    <glyph glyph-name="numbersign" unicode="#" 
d="M256 768v128h-128v-128h128zM0 512v128h-128v128h128v128h-128v128h128v128h128v-128h128v128h128v-128h128v-128h-128v-128h128v-128h-128v-128h-128v128h-128v-128h-128z" />
    <glyph glyph-name="dollar" unicode="$" 
d="M256 -128v128h-256v128h256v384h-256v384h128v-256h128v256h-128v128h128v128h64v-128h192v-128h-192v-256h192v-512h-128v384h-64v-384h64v-128h-64v-128h-64z" />
    <glyph glyph-name="parenleft" unicode="(" horiz-adv-x="768" 
d="M128 0v128h512v-128h-512zM0 128v896h128v-896h-128zM128 1024v128h512v-128h-512z" />
    <glyph glyph-name="parenright" unicode=")" horiz-adv-x="768" 
d="M0 0v128h512v-128h-512zM512 128v896h128v-896h-128zM0 1024v128h512v-128h-512z" />
    <glyph glyph-name="asterisk" unicode="*" horiz-adv-x="512" 
d="M0 512v128h128v-128h-128zM256 512v128h128v-128h-128zM128 640v128h128v-128h-128zM0 768v128h128v-128h-128zM256 768v128h128v-128h-128z" />
    <glyph glyph-name="plus" unicode="+" horiz-adv-x="768" 
d="M256 256v256h-256v128h256v256h128v-256h256v-128h-256v-256h-128z" />
    <glyph glyph-name="comma" unicode="," horiz-adv-x="256" 
d="M0 0v256h128v-256h-128z" />
    <glyph glyph-name="period" unicode="." horiz-adv-x="256" 
d="M0 0v128h128v-128h-128z" />
    <glyph glyph-name="zero" unicode="0" 
d="M128 0v128h256v-128h-256zM0 128v768h128v-768h-128zM384 128v768h128v-768h-128zM128 896v128h256v-128h-256z" />
    <glyph glyph-name="one" unicode="1" horiz-adv-x="384" 
d="M128 0v896h-128v128h256v-1024h-128z" />
    <glyph glyph-name="two" unicode="2" 
d="M128 0v128h384v-128h-384zM0 128v512h384v256h128v-384h-384v-384h-128zM0 896v128h384v-128h-384z" />
    <glyph glyph-name="three" unicode="3" 
d="M0 0v128h384v-128h-384zM384 128v384h-384v128h384v256h128v-768h-128zM0 896v128h384v-128h-384z" />
    <glyph glyph-name="four" unicode="4" 
d="M384 0v512h-384v512h128v-384h256v384h128v-1024h-128z" />
    <glyph glyph-name="five" unicode="5" 
d="M0 0v128h384v384h-384v512h512v-128h-384v-256h384v-640h-512z" />
    <glyph glyph-name="six" unicode="6" 
d="M384 128v384h-256v-384h256zM0 0v1024h512v-128h-384v-256h384v-640h-512z" />
    <glyph glyph-name="seven" unicode="7" 
d="M384 0v512h-128v128h128v256h-384v128h512v-1024h-128z" />
    <glyph glyph-name="eight" unicode="8" 
d="M128 0v128h256v-128h-256zM0 128v384h128v-384h-128zM384 128v384h128v-384h-128zM128 512v128h256v-128h-256zM0 640v256h128v-256h-128zM384 640v256h128v-256h-128zM128 896v128h256v-128h-256z" />
    <glyph glyph-name="nine" unicode="9" 
d="M0 512v384h128v-384h-128zM384 0v384h-256v128h256v384h128v-896h-128zM128 896v128h256v-128h-256z" />
    <glyph glyph-name="equal" unicode="=" horiz-adv-x="768" 
d="M0 384v128h640v-128h-640zM0 640v128h640v-128h-640z" />
    <glyph glyph-name="question" unicode="?" horiz-adv-x="384" 
d="M0 0v128h128v-128h-128zM0 256v256h128v-256h-128zM128 512v384h-128v128h256v-512h-128z" />
    <glyph glyph-name="A" unicode="A" 
d="M384 512v384h-256v-384h256zM0 0v1024h512v-1024h-128v384h-256v-384h-128z" />
    <glyph glyph-name="B" unicode="B" 
d="M0 0v1024h384v-128h-256v-384h256v384h128v-768h-128v256h-256v-256h256v-128h-384z" />
    <glyph glyph-name="C" unicode="C" 
d="M128 0v128h384v-128h-384zM0 128v768h128v-768h-128zM128 896v128h384v-128h-384z" />
    <glyph glyph-name="D" unicode="D" 
d="M384 128v768h128v-768h-128zM0 0v1024h384v-128h-256v-768h256v-128h-384z" />
    <glyph glyph-name="E" unicode="E" 
d="M128 0v128h384v-128h-384zM0 128v768h128v-384h384v-128h-384v-256h-128zM128 896v128h384v-128h-384z" />
    <glyph glyph-name="F" unicode="F" 
d="M0 0v1024h512v-128h-384v-256h256v-128h-256v-512h-128z" />
    <glyph glyph-name="G" unicode="G" 
d="M0 0v1024h512v-128h-384v-768h256v256h-128v128h256v-512h-512z" />
    <glyph glyph-name="H" unicode="H" 
d="M0 0v1024h128v-512h256v512h128v-1024h-128v384h-256v-384h-128z" />
    <glyph glyph-name="I" unicode="I" horiz-adv-x="256" 
d="M0 0v1024h128v-1024h-128z" />
    <glyph glyph-name="J" unicode="J" 
d="M0 0v128h384v768h-128v128h256v-1024h-512z" />
    <glyph glyph-name="K" unicode="K" 
d="M384 0v384h128v-384h-128zM0 0v1024h128v-512h256v-128h-256v-384h-128zM384 512v512h128v-512h-128z" />
    <glyph glyph-name="L" unicode="L" horiz-adv-x="512" 
d="M0 0v1024h128v-896h256v-128h-384z" />
    <glyph glyph-name="M" unicode="M" horiz-adv-x="768" 
d="M0 0v1024h640v-1024h-128v896h-128v-384h-128v384h-128v-896h-128z" />
    <glyph glyph-name="N" unicode="N" 
d="M0 0v896h128v-896h-128zM384 0v896h128v-896h-128zM128 896v128h256v-128h-256z" />
    <glyph glyph-name="O" unicode="O" 
d="M128 0v128h256v-128h-256zM0 128v768h128v-768h-128zM384 128v768h128v-768h-128zM128 896v128h256v-128h-256z" />
    <glyph glyph-name="P" unicode="P" 
d="M0 0v896h128v-384h256v-128h-256v-384h-128zM384 512v384h128v-384h-128zM128 896v128h256v-128h-256z" />
    <glyph glyph-name="Q" unicode="Q" horiz-adv-x="768" 
d="M128 0v128h256v-128h-256zM0 128v768h128v-768h-128zM384 128v128h-128v128h128v512h128v-512h128v-128h-128v-128h-128zM128 896v128h256v-128h-256z" />
    <glyph glyph-name="R" unicode="R" 
d="M0 0v1024h384v-128h-256v-384h256v384h128v-896h-128v384h-256v-384h-128z" />
    <glyph glyph-name="S" unicode="S" 
d="M0 0v128h384v-128h-384zM384 128v384h-384v384h128v-256h384v-512h-128zM128 896v128h384v-128h-384z" />
    <glyph glyph-name="T" unicode="T" horiz-adv-x="768" 
d="M256 0v896h-256v128h640v-128h-256v-896h-128z" />
    <glyph glyph-name="U" unicode="U" 
d="M128 0v128h256v-128h-256zM0 128v896h128v-896h-128zM384 128v896h128v-896h-128z" />
    <glyph glyph-name="V" unicode="V" 
d="M0 0v1024h128v-896h256v896h128v-1024h-512z" />
    <glyph glyph-name="W" unicode="W" horiz-adv-x="768" 
d="M0 0v1024h128v-896h128v384h128v-384h128v896h128v-1024h-640z" />
    <glyph glyph-name="X" unicode="X" 
d="M0 0v384h128v-384h-128zM384 0v384h128v-384h-128zM128 384v128h256v-128h-256zM0 512v512h128v-512h-128zM384 512v512h128v-512h-128z" />
    <glyph glyph-name="Y" unicode="Y" horiz-adv-x="768" 
d="M256 0v384h-128v128h384v-128h-128v-384h-128zM0 512v512h128v-512h-128zM512 512v512h128v-512h-128z" />
    <glyph glyph-name="Z" unicode="Z" 
d="M128 0v128h384v-128h-384zM0 128v512h384v256h128v-384h-384v-384h-128zM0 896v128h384v-128h-384z" />
    <glyph glyph-name="underscore" unicode="_" horiz-adv-x="768" 
d="M0 0v128h640v-128h-640z" />
    <glyph glyph-name="quoteleft" unicode="&#x2018;" horiz-adv-x="256" 
d="M0 768v256h128v-256h-128z" />
    <glyph glyph-name="quoteright" unicode="&#x2019;" horiz-adv-x="512" 
d="M256 768v256h128v-256h-128z" />
    <glyph glyph-name="quotedblleft" unicode="&#x201c;" horiz-adv-x="512" 
d="M0 768v256h128v-256h-128zM256 768v256h128v-256h-128z" />
    <glyph glyph-name="quotedblright" unicode="&#x201d;" horiz-adv-x="512" 
d="M0 768v256h128v-256h-128zM256 768v256h128v-256h-128z" />
    <glyph glyph-name="a" unicode="a" 
d="M384 512v384h-256v-384h256zM0 0v1024h512v-1024h-128v384h-256v-384h-128z" />
    <glyph glyph-name="b" unicode="b" 
d="M0 0v1024h384v-128h-256v-384h256v384h128v-768h-128v256h-256v-256h256v-128h-384z" />
    <glyph glyph-name="c" unicode="c" 
d="M128 0v128h384v-128h-384zM0 128v768h128v-768h-128zM128 896v128h384v-128h-384z" />
    <glyph glyph-name="d" unicode="d" 
d="M384 128v768h128v-768h-128zM0 0v1024h384v-128h-256v-768h256v-128h-384z" />
    <glyph glyph-name="e" unicode="e" 
d="M128 0v128h384v-128h-384zM0 128v768h128v-384h384v-128h-384v-256h-128zM128 896v128h384v-128h-384z" />
    <glyph glyph-name="f" unicode="f" 
d="M0 0v1024h512v-128h-384v-256h256v-128h-256v-512h-128z" />
    <glyph glyph-name="g" unicode="g" 
d="M0 0v1024h512v-128h-384v-768h256v256h-128v128h256v-512h-512z" />
    <glyph glyph-name="h" unicode="h" 
d="M0 0v1024h128v-512h256v512h128v-1024h-128v384h-256v-384h-128z" />
    <glyph glyph-name="i" unicode="i" horiz-adv-x="256" 
d="M0 0v1024h128v-1024h-128z" />
    <glyph glyph-name="j" unicode="j" 
d="M0 0v128h384v768h-128v128h256v-1024h-512z" />
    <glyph glyph-name="k" unicode="k" 
d="M384 0v384h128v-384h-128zM0 0v1024h128v-512h256v-128h-256v-384h-128zM384 512v512h128v-512h-128z" />
    <glyph glyph-name="l" unicode="l" horiz-adv-x="512" 
d="M0 0v1024h128v-896h256v-128h-384z" />
    <glyph glyph-name="m" unicode="m" horiz-adv-x="768" 
d="M0 0v1024h640v-1024h-128v896h-128v-384h-128v384h-128v-896h-128z" />
    <glyph glyph-name="n" unicode="n" 
d="M0 0v896h128v-896h-128zM384 0v896h128v-896h-128zM128 896v128h256v-128h-256z" />
    <glyph glyph-name="o" unicode="o" 
d="M128 0v128h256v-128h-256zM0 128v768h128v-768h-128zM384 128v768h128v-768h-128zM128 896v128h256v-128h-256z" />
    <glyph glyph-name="p" unicode="p" 
d="M0 0v896h128v-384h256v-128h-256v-384h-128zM384 512v384h128v-384h-128zM128 896v128h256v-128h-256z" />
    <glyph glyph-name="q" unicode="q" horiz-adv-x="768" 
d="M128 0v128h256v-128h-256zM0 128v768h128v-768h-128zM384 128v128h-128v128h128v512h128v-512h128v-128h-128v-128h-128zM128 896v128h256v-128h-256z" />
    <glyph glyph-name="r" unicode="r" 
d="M0 0v1024h384v-128h-256v-384h256v384h128v-896h-128v384h-256v-384h-128z" />
    <glyph glyph-name="s" unicode="s" 
d="M0 0v128h384v-128h-384zM384 128v384h-384v384h128v-256h384v-512h-128zM128 896v128h384v-128h-384z" />
    <glyph glyph-name="t" unicode="t" horiz-adv-x="768" 
d="M256 0v896h-256v128h640v-128h-256v-896h-128z" />
    <glyph glyph-name="u" unicode="u" 
d="M128 0v128h256v-128h-256zM0 128v896h128v-896h-128zM384 128v896h128v-896h-128z" />
    <glyph glyph-name="v" unicode="v" 
d="M0 0v1024h128v-896h256v896h128v-1024h-512z" />
    <glyph glyph-name="w" unicode="w" horiz-adv-x="768" 
d="M0 0v1024h128v-896h128v384h128v-384h128v896h128v-1024h-640z" />
    <glyph glyph-name="x" unicode="x" 
d="M0 0v384h128v-384h-128zM384 0v384h128v-384h-128zM128 384v128h256v-128h-256zM0 512v512h128v-512h-128zM384 512v512h128v-512h-128z" />
    <glyph glyph-name="y" unicode="y" horiz-adv-x="768" 
d="M256 0v384h-128v128h384v-128h-128v-384h-128zM0 512v512h128v-512h-128zM512 512v512h128v-512h-128z" />
    <glyph glyph-name="z" unicode="z" 
d="M128 0v128h384v-128h-384zM0 128v512h384v256h128v-384h-384v-384h-128zM0 896v128h384v-128h-384z" />
  </font>
</defs>
</svg>
